<?xml version="1.0" encoding="UTF-8"?><svg xmlns="http://www.w3.org/2000/svg" width="1500" height="2380" viewBox="0 0 1500 2380"><defs><marker id="arrow" markerWidth="10" markerHeight="10" refX="9" refY="5" orient="auto"><path d="M0,0 L10,5 L0,10 z" fill="#4f5b5b"/></marker><style>.title{font:bold 34px Arial;fill:#fff}.lane{font:bold 28px Arial;fill:#1f2933}.action{font:26px Arial;fill:#1f2933}.decision{font:22px Arial;fill:#1f2933}.guard{font:bold 20px Arial;fill:#6b5315}.flow{fill:none;stroke:#4f5b5b;stroke-width:3;stroke-linejoin:round;stroke-linecap:round}</style></defs><rect width="1500" height="2380" fill="#fff"/><rect x="70" y="24" width="1360" height="72" rx="8" fill="#1f4e78"/><text x="750" y="70" text-anchor="middle" class="title">Traitement d'une demande de marketplace</text><rect x="70" y="115" width="453.3333333333333" height="2215" fill="#ffffff" stroke="#9aa9b4" stroke-width="1.4"/><rect x="70" y="115" width="453.3333333333333" height="64" fill="#dce6f1" stroke="#9aa9b4" stroke-width="1.4"/><text x="296.66666666666663" y="155" text-anchor="middle" class="lane">Administrateur SaaS</text><rect x="523.3333333333333" y="115" width="453.3333333333333" height="2215" fill="#fbfdfe" stroke="#9aa9b4" stroke-width="1.4"/><rect x="523.3333333333333" y="115" width="453.3333333333333" height="64" fill="#dce6f1" stroke="#9aa9b4" stroke-width="1.4"/><text x="749.9999999999999" y="155" text-anchor="middle" class="lane">Système Matchia</text><rect x="976.6666666666666" y="115" width="453.3333333333333" height="2215" fill="#ffffff" stroke="#9aa9b4" stroke-width="1.4"/><rect x="976.6666666666666" y="115" width="453.3333333333333" height="64" fill="#dce6f1" stroke="#9aa9b4" stroke-width="1.4"/><text x="1203.3333333333333" y="155" text-anchor="middle" class="lane">Service d'e-mail</text><polyline points="296.66666666666663,207 296.66666666666663,246" class="flow" marker-end="url(#arrow)"/><polyline points="296.66666666666663,324 296.66666666666663,366" class="flow" marker-end="url(#arrow)"/><polyline points="296.66666666666663,444 296.66666666666663,486" class="flow" marker-end="url(#arrow)"/><polyline points="438.1066666666666,564 692,634.0073529411765" class="flow" marker-end="url(#arrow)"/><polyline points="750,694 750,751" class="flow" marker-end="url(#arrow)"/><rect x="716" y="697.64" width="68" height="23" rx="5" fill="#fff"/><text x="750" y="714.64" text-anchor="middle" class="guard">[Oui]</text><polyline points="692,650 497.3333333333333,650" class="flow" marker-end="url(#arrow)"/><rect x="556.7733333333333" y="624" width="68" height="23" rx="5" fill="#fff"/><text x="590.7733333333333" y="641" text-anchor="middle" class="guard">[Non]</text><polyline points="296.66666666666663,689 296.66666666666663,773" class="flow" marker-end="url(#arrow)"/><polyline points="623.7142857142857,829 422.95238095238096,891" class="flow" marker-end="url(#arrow)"/><polyline points="296.66666666666663,969 296.66666666666663,1016" class="flow" marker-end="url(#arrow)"/><polyline points="354.66666666666663,1077.9117647058824 623.7142857142857,1161" class="flow" marker-end="url(#arrow)"/><rect x="460.57142857142856" y="1095.1176470588236" width="68" height="23" rx="5" fill="#fff"/><text x="494.57142857142856" y="1112.1176470588236" text-anchor="middle" class="guard">[Oui]</text><polyline points="296.66666666666663,1104 296.66666666666663,1161" class="flow" marker-end="url(#arrow)"/><rect x="262.66666666666663" y="1107.64" width="68" height="23" rx="5" fill="#fff"/><text x="296.66666666666663" y="1124.64" text-anchor="middle" class="guard">[Non]</text><polyline points="95.99999999999997,1200 105,1200 105,1660 540,1660 549.3333333333334,1660" class="flow" marker-end="url(#arrow)"/><polyline points="897.3333333333333,1699 1056,1741" class="flow" marker-end="url(#arrow)"/><polyline points="1002.6666666666666,1808.7720588235295 313.66666666666663,1907.5625" class="flow" marker-end="url(#arrow)"/><polyline points="750,1239 750,1291" class="flow" marker-end="url(#arrow)"/><polyline points="886,1369 1067.3333333333333,1421" class="flow" marker-end="url(#arrow)"/><polyline points="1002.6666666666666,1486.5588235294117 313.66666666666663,1577.75" class="flow" marker-end="url(#arrow)"/><circle cx="296.66666666666663" cy="190" r="14" fill="#263333"/><rect x="95.99999999999997" y="246" width="401.3333333333333" height="78" rx="18" fill="#dbe9ff" stroke="#7da3d6" stroke-width="2"/><text x="296.66666666666663" y="290" text-anchor="middle" class="action"><tspan x="296.66666666666663" y="290">S'authentifier</tspan></text><rect x="95.99999999999997" y="366" width="401.3333333333333" height="78" rx="18" fill="#dbe9ff" stroke="#7da3d6" stroke-width="2"/><text x="296.66666666666663" y="410" text-anchor="middle" class="action"><tspan x="296.66666666666663" y="410">Consulter les demandes</tspan></text><rect x="95.99999999999997" y="486" width="401.3333333333333" height="78" rx="18" fill="#dbe9ff" stroke="#7da3d6" stroke-width="2"/><text x="296.66666666666663" y="530" text-anchor="middle" class="action"><tspan x="296.66666666666663" y="530">Sélectionner une demande</tspan></text><polygon points="750,606 808,650 750,694 692,650" fill="#fff2cc" stroke="#b68a24" stroke-width="2"/><text x="750" y="640" text-anchor="middle" class="decision"><tspan x="750" y="640">Statut en</tspan><tspan x="750" y="670">attente ?</tspan></text><rect x="95.99999999999997" y="611" width="401.3333333333333" height="78" rx="18" fill="#dbe9ff" stroke="#7da3d6" stroke-width="2"/><text x="296.66666666666663" y="640" text-anchor="middle" class="action"><tspan x="296.66666666666663" y="640">Afficher que la demande</tspan><tspan x="296.66666666666663" y="670">ne peut plus être traitée</tspan></text><circle cx="296.66666666666663" cy="790" r="17" fill="#fff" stroke="#263333" stroke-width="4"/><circle cx="296.66666666666663" cy="790" r="9" fill="#263333"/><rect x="549.3333333333334" y="751" width="401.3333333333333" height="78" rx="18" fill="#d7f4ef" stroke="#5d7774" stroke-width="2"/><text x="750" y="780" text-anchor="middle" class="action"><tspan x="750" y="780">Afficher les informations,</tspan><tspan x="750" y="810">les documents et la configuration</tspan></text><rect x="95.99999999999997" y="891" width="401.3333333333333" height="78" rx="18" fill="#dbe9ff" stroke="#7da3d6" stroke-width="2"/><text x="296.66666666666663" y="920" text-anchor="middle" class="action"><tspan x="296.66666666666663" y="920">Vérifier la complétude</tspan><tspan x="296.66666666666663" y="950">et la conformité</tspan></text><polygon points="296.66666666666663,1016 354.66666666666663,1060 296.66666666666663,1104 238.66666666666663,1060" fill="#fff2cc" stroke="#b68a24" stroke-width="2"/><text x="296.66666666666663" y="1050" text-anchor="middle" class="decision"><tspan x="296.66666666666663" y="1050">Demande</tspan><tspan x="296.66666666666663" y="1080">admissible ?</tspan></text><rect x="95.99999999999997" y="1161" width="401.3333333333333" height="78" rx="18" fill="#dbe9ff" stroke="#7da3d6" stroke-width="2"/><text x="296.66666666666663" y="1205" text-anchor="middle" class="action"><tspan x="296.66666666666663" y="1205">Saisir le motif de rejet</tspan></text><rect x="549.3333333333334" y="1621" width="401.3333333333333" height="78" rx="18" fill="#d7f4ef" stroke="#5d7774" stroke-width="2"/><text x="750" y="1650" text-anchor="middle" class="action"><tspan x="750" y="1650">Enregistrer la décision</tspan><tspan x="750" y="1680">REJETÉE</tspan></text><rect x="1002.6666666666666" y="1741" width="401.3333333333333" height="78" rx="18" fill="#d7f4ef" stroke="#5d7774" stroke-width="2"/><text x="1203.3333333333333" y="1770" text-anchor="middle" class="action"><tspan x="1203.3333333333333" y="1770">Notifier le rejet</tspan><tspan x="1203.3333333333333" y="1800">et son motif</tspan></text><circle cx="296.66666666666663" cy="1910" r="17" fill="#fff" stroke="#263333" stroke-width="4"/><circle cx="296.66666666666663" cy="1910" r="9" fill="#263333"/><rect x="549.3333333333334" y="1161" width="401.3333333333333" height="78" rx="18" fill="#d7f4ef" stroke="#5d7774" stroke-width="2"/><text x="750" y="1190" text-anchor="middle" class="action"><tspan x="750" y="1190">Enregistrer la décision</tspan><tspan x="750" y="1220">APPROUVÉE</tspan></text><rect x="549.3333333333334" y="1291" width="401.3333333333333" height="78" rx="18" fill="#d7f4ef" stroke="#5d7774" stroke-width="2"/><text x="750" y="1320" text-anchor="middle" class="action"><tspan x="750" y="1320">Générer le lien</tspan><tspan x="750" y="1350">de paiement</tspan></text><rect x="1002.6666666666666" y="1421" width="401.3333333333333" height="78" rx="18" fill="#d7f4ef" stroke="#5d7774" stroke-width="2"/><text x="1203.3333333333333" y="1450" text-anchor="middle" class="action"><tspan x="1203.3333333333333" y="1450">Envoyer les instructions</tspan><tspan x="1203.3333333333333" y="1480">de paiement</tspan></text><circle cx="296.66666666666663" cy="1580" r="17" fill="#fff" stroke="#263333" stroke-width="4"/><circle cx="296.66666666666663" cy="1580" r="9" fill="#263333"/></svg>