<?xml version="1.0" encoding="UTF-8"?><svg xmlns="http://www.w3.org/2000/svg" width="2400" height="1760" viewBox="0 0 2400 1760" role="img"><defs><marker id="tealArrow" markerWidth="11" markerHeight="11" refX="10" refY="5.5" orient="auto"><path d="M0,0L10,5.5L0,11z" fill="#14a9b5"/></marker><marker id="amberArrow" markerWidth="12" markerHeight="12" refX="11" refY="6" orient="auto"><path d="M1,1L11,6L1,11" fill="none" stroke="#c28b18" stroke-width="1.6"/></marker><style>.title{font:bold 17px Arial;fill:#263333}.actor{font:14px Arial;fill:#333}.stereotype,.condition{font:italic 10px Arial;fill:#666}.usecase{font:14px Arial;fill:#222;dominant-baseline:middle}.association{fill:none;stroke:#555;stroke-width:1.2}.include{fill:none;stroke:#14a9b5;stroke-width:1.35;stroke-dasharray:7 6}.extend{fill:none;stroke:#c28b18;stroke-width:1.35;stroke-dasharray:7 6}.include-label{font:11px Arial;fill:#39747a}.extend-label{font:11px Arial;fill:#8a6515}.legend{font:11px Arial;fill:#666}.caption{font:italic 16px Arial;fill:#444}</style></defs><rect width="2400" height="1760" fill="#fff"/><rect x="300" y="60" width="1840" height="1580" fill="#fff" stroke="#4f5b5b" stroke-width="1.6"/><line x1="300" y1="102" x2="2140" y2="102" stroke="#4f5b5b" stroke-width="1.2"/><text x="320" y="88" class="title">Système Matchia — Marketplace bancaire publique</text><path d="M180.0,286.0 L555.7,639.6" class="association"/><path d="M180.0,1086.0 L555.7,740.4" class="association"/><path d="M901.9,631.2 L1476.5,258.4" class="include" marker-end="url(#tealArrow)"/><rect x="1105.9814205899297" y="449.91516542054717" width="86" height="18" rx="3" fill="#fff" opacity=".95"/><text x="1148.9814205899297" y="462.91516542054717" text-anchor="middle" class="include-label">«include»</text><path d="M1004.1,660.6 L1457.5,427.6" class="include" marker-end="url(#tealArrow)"/><rect x="1156.0831531476865" y="539.4030564479223" width="86" height="18" rx="3" fill="#fff" opacity=".95"/><text x="1199.0831531476865" y="552.4030564479223" text-anchor="middle" class="include-label">«include»</text><path d="M1030.0,690.0 L1388.8,592.6" class="include" marker-end="url(#tealArrow)"/><rect x="1141.2786784460136" y="627.1243587075106" width="86" height="18" rx="3" fill="#fff" opacity=".95"/><text x="1184.2786784460136" y="640.1243587075106" text-anchor="middle" class="include-label">«include»</text><path d="M1004.1,719.4 L1230.1,718.6" class="include" marker-end="url(#tealArrow)"/><rect x="1058.2726885759832" y="698.0648801115054" width="86" height="18" rx="3" fill="#fff" opacity=".95"/><text x="1101.2726885759832" y="711.0648801115054" text-anchor="middle" class="include-label">«include»</text><path d="M901.9,748.8 L1358.2,845.7" class="include" marker-end="url(#tealArrow)"/><rect x="1055.143270750034" y="769.4729358612306" width="86" height="18" rx="3" fill="#fff" opacity=".95"/><text x="1098.143270750034" y="782.4729358612306" text-anchor="middle" class="include-label">«include»</text><path d="M613.5,1370.1 L736.0,759.9" class="extend" marker-end="url(#amberArrow)"/><rect x="626.8524149949533" y="1068.4021319418157" width="86" height="18" rx="3" fill="#fff" opacity=".95"/><text x="669.8524149949533" y="1081.4021319418157" text-anchor="middle" class="extend-label">«extend»</text><path d="M1164.3,1370.7 L792.1,759.2" class="extend" marker-end="url(#amberArrow)"/><rect x="950.1250519739253" y="1068.4197282428775" width="86" height="18" rx="3" fill="#fff" opacity=".95"/><text x="993.1250519739253" y="1081.4197282428775" text-anchor="middle" class="extend-label">«extend»</text><path d="M1577.0,1400.1 L1110.0,1325.0 L1080.0,1325.0 L1080.0,860.0 L980.0,860.0 L839.7,756.3" class="extend" marker-end="url(#amberArrow)"/><rect x="1037" y="1090.1" width="86" height="18" rx="3" fill="#fff" opacity=".95"/><text x="1080" y="1103.1" text-anchor="middle" class="extend-label">«extend»</text><g><circle cx="110" cy="243" r="14" fill="#fff" stroke="#555" stroke-width="1.4"/><path d="M110,257L110,295M85,271L135,271M110,295L88,322M110,295L132,322" fill="none" stroke="#555" stroke-width="1.4"/><text x="110" y="332" text-anchor="middle" class="actor"><tspan x="110" y="332">Internaute</tspan></text></g><g><circle cx="110" cy="1043" r="14" fill="#fff" stroke="#555" stroke-width="1.4"/><path d="M110,1057L110,1095M85,1071L135,1071M110,1095L88,1122M110,1095L132,1122" fill="none" stroke="#555" stroke-width="1.4"/><text x="110" y="1132" text-anchor="middle" class="actor"><tspan x="110" y="1132">Client</tspan></text></g><g><ellipse cx="750" cy="690" rx="280" ry="70" fill="#dbe9ff" stroke="#7da3d6" stroke-width="1.45"/><text x="750" y="690" text-anchor="middle" class="usecase"><tspan x="750" y="690">Consulter la marketplace, comparer et simuler</tspan></text></g><g><ellipse cx="1555" cy="207.5" rx="325" ry="52.5" fill="#d7f4ef" stroke="#5d7774" stroke-width="1.45"/><text x="1555" y="207.5" text-anchor="middle" class="usecase"><tspan x="1555" y="207.5">Identifier la marketplace par son slug</tspan></text></g><g><ellipse cx="1555" cy="377.5" rx="325" ry="52.5" fill="#d7f4ef" stroke="#5d7774" stroke-width="1.45"/><text x="1555" y="368" text-anchor="middle" class="usecase"><tspan x="1555" y="368">Afficher l&apos;identité visuelle</tspan><tspan x="1555" y="387">et les contenus</tspan></text></g><g><ellipse cx="1555" cy="547.5" rx="325" ry="52.5" fill="#d7f4ef" stroke="#5d7774" stroke-width="1.45"/><text x="1555" y="547.5" text-anchor="middle" class="usecase"><tspan x="1555" y="547.5">Consulter les stores disponibles</tspan></text></g><g><ellipse cx="1555" cy="717.5" rx="325" ry="52.5" fill="#d7f4ef" stroke="#5d7774" stroke-width="1.45"/><text x="1555" y="717.5" text-anchor="middle" class="usecase"><tspan x="1555" y="717.5">Parcourir les produits publiés</tspan></text></g><g><ellipse cx="1555" cy="887.5" rx="325" ry="52.5" fill="#d7f4ef" stroke="#5d7774" stroke-width="1.45"/><text x="1555" y="878" text-anchor="middle" class="usecase"><tspan x="1555" y="878">Consulter la fiche détaillée</tspan><tspan x="1555" y="897">d&apos;un produit</tspan></text></g><g><ellipse cx="600" cy="1437.5" rx="280" ry="67.5" fill="#fff2cc" stroke="#c79a2b" stroke-width="1.45"/><text x="600" y="1428" text-anchor="middle" class="usecase"><tspan x="600" y="1428">Comparer plusieurs produits</tspan><tspan x="600" y="1447" class="condition">[Module Comparateur actif]</tspan></text></g><g><ellipse cx="1205" cy="1437.5" rx="280" ry="67.5" fill="#fff2cc" stroke="#c79a2b" stroke-width="1.45"/><text x="1205" y="1428" text-anchor="middle" class="usecase"><tspan x="1205" y="1428">Simuler un financement</tspan><tspan x="1205" y="1447" class="condition">[Module Simulateur actif]</tspan></text></g><g><ellipse cx="1810" cy="1437.5" rx="280" ry="67.5" fill="#fff2cc" stroke="#c79a2b" stroke-width="1.45"/><text x="1810" y="1418.5" text-anchor="middle" class="usecase"><tspan x="1810" y="1418.5">Commencer une demande</tspan><tspan x="1810" y="1437.5">de financement</tspan><tspan x="1810" y="1456.5" class="condition">[Le visiteur souhaite poursuivre]</tspan></text></g><g class="legend"><text x="1510" y="1545">Association : trait plein</text><text x="1510" y="1570">«include» : sous-fonction obligatoire</text><text x="1510" y="1595">«extend» : comportement conditionnel</text></g><text x="1200" y="1710" text-anchor="middle" class="caption">UC-08 — Consulter la marketplace, comparer et simuler</text></svg>