<svg xmlns="http://www.w3.org/2000/svg" width="1800" height="1265" viewBox="0 0 1800 1265"><defs><marker id="arrow" markerWidth="12" markerHeight="12" refX="10" refY="4" orient="auto" markerUnits="strokeWidth"><path d="M0,0 L10,4 L0,8 z" fill="#1F4E79"/></marker><marker id="openArrow" markerWidth="12" markerHeight="12" refX="10" refY="4" orient="auto" markerUnits="strokeWidth"><path d="M1,0 L10,4 L1,8" fill="none" stroke="#68839E" stroke-width="1.6"/></marker><filter id="shadow" x="-20%" y="-20%" width="140%" height="140%"><feDropShadow dx="0" dy="2" stdDeviation="2" flood-opacity="0.14"/></filter></defs><rect width="100%" height="100%" fill="white"/><text x="900" y="48" text-anchor="middle" font-family="Arial, sans-serif" font-size="30" font-weight="700" fill="#1F4E79" ><tspan x="900" dy="0">Authentification, autorisation et contexte multi-tenant</tspan></text><line x1="70" y1="66" x2="1730" y2="66" stroke="#2F75B5" stroke-width="2"/><rect x="45" y="537" width="1710" height="572" rx="4" fill="#FFF8DF" fill-opacity="0.26" stroke="#68839E" stroke-width="2"/><path d="M45 537 h104 v31 h-86 l-18 -18 z" fill="#EAF3FB" stroke="#68839E" stroke-width="1.5"/><text x="89" y="559" text-anchor="middle" font-family="Arial, sans-serif" font-size="17" font-weight="700" fill="#1F4E79" ><tspan x="89" dy="0">alt</tspan></text><text x="165" y="561" text-anchor="start" font-family="Arial, sans-serif" font-size="16" font-weight="600" fill="#5C6F82" font-style="italic"><tspan x="165" dy="0">[compte invalide ou inactif]</tspan></text><line x1="45" y1="611" x2="1755" y2="611" stroke="#68839E" stroke-width="1.5" stroke-dasharray="10 8"/><text x="64" y="633" text-anchor="start" font-family="Arial, sans-serif" font-size="16" font-weight="600" fill="#5C6F82" font-style="italic"><tspan x="64" dy="0">[identifiants valides]</tspan></text><rect x="45" y="747" width="1710" height="82" rx="4" fill="#FFF8DF" fill-opacity="0.26" stroke="#68839E" stroke-width="2"/><path d="M45 747 h104 v31 h-86 l-18 -18 z" fill="#EAF3FB" stroke="#68839E" stroke-width="1.5"/><text x="89" y="769" text-anchor="middle" font-family="Arial, sans-serif" font-size="17" font-weight="700" fill="#1F4E79" ><tspan x="89" dy="0">opt</tspan></text><text x="165" y="771" text-anchor="start" font-family="Arial, sans-serif" font-size="16" font-weight="600" fill="#5C6F82" font-style="italic"><tspan x="165" dy="0">[utilisateur rattaché à une banque]</tspan></text><rect x="16" y="92" width="218" height="76" rx="12" fill="#EAF3FB" stroke="#2F75B5" stroke-width="3" filter="url(#shadow)"/><text x="125" y="115" text-anchor="middle" font-family="Arial, sans-serif" font-size="15" font-weight="500" fill="#5C6F82" font-style="italic"><tspan x="125" dy="0">«actor»</tspan></text><text x="125" y="141" text-anchor="middle" font-family="Arial, sans-serif" font-size="17" font-weight="700" fill="#17324D" ><tspan x="125" dy="0">Utilisateur</tspan></text><line x1="125" y1="168" x2="125" y2="1177" stroke="#68839E" stroke-width="2" stroke-dasharray="10 9"/><rect x="403.5" y="92" width="218" height="76" rx="12" fill="#EAF3FB" stroke="#2F75B5" stroke-width="3" filter="url(#shadow)"/><text x="512.5" y="115" text-anchor="middle" font-family="Arial, sans-serif" font-size="15" font-weight="500" fill="#5C6F82" font-style="italic"><tspan x="512.5" dy="0">«boundary»</tspan></text><text x="512.5" y="141" text-anchor="middle" font-family="Arial, sans-serif" font-size="17" font-weight="700" fill="#17324D" ><tspan x="512.5" dy="0">Interface Web</tspan></text><line x1="512.5" y1="168" x2="512.5" y2="1177" stroke="#68839E" stroke-width="2" stroke-dasharray="10 9"/><rect x="791" y="92" width="218" height="76" rx="12" fill="#EAF3FB" stroke="#2F75B5" stroke-width="3" filter="url(#shadow)"/><text x="900" y="115" text-anchor="middle" font-family="Arial, sans-serif" font-size="15" font-weight="500" fill="#5C6F82" font-style="italic"><tspan x="900" dy="0">«control»</tspan></text><text x="900" y="141" text-anchor="middle" font-family="Arial, sans-serif" font-size="17" font-weight="700" fill="#17324D" ><tspan x="900" dy="0">API Auth</tspan></text><line x1="900" y1="168" x2="900" y2="1177" stroke="#68839E" stroke-width="2" stroke-dasharray="10 9"/><rect x="1178.5" y="92" width="218" height="76" rx="12" fill="#EAF3FB" stroke="#2F75B5" stroke-width="3" filter="url(#shadow)"/><text x="1287.5" y="115" text-anchor="middle" font-family="Arial, sans-serif" font-size="15" font-weight="500" fill="#5C6F82" font-style="italic"><tspan x="1287.5" dy="0">«control»</tspan></text><text x="1287.5" y="141" text-anchor="middle" font-family="Arial, sans-serif" font-size="17" font-weight="700" fill="#17324D" ><tspan x="1287.5" dy="0">Service JWT</tspan></text><line x1="1287.5" y1="168" x2="1287.5" y2="1177" stroke="#68839E" stroke-width="2" stroke-dasharray="10 9"/><rect x="1566" y="92" width="218" height="76" rx="12" fill="#EAF3FB" stroke="#2F75B5" stroke-width="3" filter="url(#shadow)"/><text x="1675" y="115" text-anchor="middle" font-family="Arial, sans-serif" font-size="15" font-weight="500" fill="#5C6F82" font-style="italic"><tspan x="1675" dy="0">«entity»</tspan></text><text x="1675" y="141" text-anchor="middle" font-family="Arial, sans-serif" font-size="17" font-weight="700" fill="#17324D" ><tspan x="1675" dy="0">PostgreSQL</tspan></text><line x1="1675" y1="168" x2="1675" y2="1177" stroke="#68839E" stroke-width="2" stroke-dasharray="10 9"/><rect x="503.5" y="222" width="18" height="877" fill="#EAF3FB" stroke="#2F75B5" stroke-width="1.6"/><rect x="891" y="292" width="18" height="737" fill="#EAF3FB" stroke="#2F75B5" stroke-width="1.6"/><rect x="1666" y="362" width="18" height="387" fill="#EAF3FB" stroke="#2F75B5" stroke-width="1.6"/><rect x="1278.5" y="852" width="18" height="107" fill="#EAF3FB" stroke="#2F75B5" stroke-width="1.6"/><line x1="135" y1="235" x2="500.5" y2="235" stroke="#1F4E79" stroke-width="2.5"  marker-end="url(#arrow)"/><text x="318.75" y="225" text-anchor="middle" font-family="Arial, sans-serif" font-size="17" font-weight="600" fill="#17324D" ><tspan x="318.75" dy="0">Saisir e-mail et mot de passe</tspan></text><line x1="522.5" y1="305" x2="888" y2="305" stroke="#1F4E79" stroke-width="2.5"  marker-end="url(#arrow)"/><text x="706.25" y="295" text-anchor="middle" font-family="Arial, sans-serif" font-size="17" font-weight="600" fill="#17324D" ><tspan x="706.25" dy="0">POST /auth/login</tspan></text><line x1="910" y1="375" x2="1663" y2="375" stroke="#1F4E79" stroke-width="2.5"  marker-end="url(#arrow)"/><text x="1287.5" y="365" text-anchor="middle" font-family="Arial, sans-serif" font-size="17" font-weight="600" fill="#17324D" ><tspan x="1287.5" dy="0">Rechercher le compte</tspan></text><line x1="1665" y1="445" x2="912" y2="445" stroke="#68839E" stroke-width="2" stroke-dasharray="10 7" marker-end="url(#openArrow)"/><text x="1287.5" y="435" text-anchor="middle" font-family="Arial, sans-serif" font-size="17" font-weight="500" fill="#5C6F82" ><tspan x="1287.5" dy="0">Compte, rôle et tenant</tspan></text><path d="M900 515 h86 v35 h-86" fill="none" stroke="#1F4E79" stroke-width="2.3" marker-end="url(#arrow)"/><text x="943" y="506" text-anchor="middle" font-family="Arial, sans-serif" font-size="17" font-weight="600" fill="#17324D" ><tspan x="943" dy="0">Vérifier mot de passe et état</tspan></text><line x1="890" y1="585" x2="524.5" y2="585" stroke="#68839E" stroke-width="2" stroke-dasharray="10 7" marker-end="url(#openArrow)"/><text x="706.25" y="575" text-anchor="middle" font-family="Arial, sans-serif" font-size="17" font-weight="500" fill="#5C6F82" ><tspan x="706.25" dy="0">401 + message d’erreur</tspan></text><line x1="910" y1="655" x2="1663" y2="655" stroke="#1F4E79" stroke-width="2.5"  marker-end="url(#arrow)"/><text x="1287.5" y="645" text-anchor="middle" font-family="Arial, sans-serif" font-size="17" font-weight="600" fill="#17324D" ><tspan x="1287.5" dy="0">Charger autorisations</tspan></text><line x1="1665" y1="725" x2="912" y2="725" stroke="#68839E" stroke-width="2" stroke-dasharray="10 7" marker-end="url(#openArrow)"/><text x="1287.5" y="715" text-anchor="middle" font-family="Arial, sans-serif" font-size="17" font-weight="500" fill="#5C6F82" ><tspan x="1287.5" dy="0">Rôles et permissions</tspan></text><path d="M900 795 h86 v35 h-86" fill="none" stroke="#1F4E79" stroke-width="2.3" marker-end="url(#arrow)"/><text x="943" y="786" text-anchor="middle" font-family="Arial, sans-serif" font-size="17" font-weight="600" fill="#17324D" ><tspan x="943" dy="0">Résoudre le contexte tenant</tspan></text><line x1="910" y1="865" x2="1275.5" y2="865" stroke="#1F4E79" stroke-width="2.5"  marker-end="url(#arrow)"/><text x="1093.75" y="855" text-anchor="middle" font-family="Arial, sans-serif" font-size="17" font-weight="600" fill="#17324D" ><tspan x="1093.75" dy="0">Générer access token et refresh token</tspan></text><line x1="1277.5" y1="935" x2="912" y2="935" stroke="#68839E" stroke-width="2" stroke-dasharray="10 7" marker-end="url(#openArrow)"/><text x="1093.75" y="925" text-anchor="middle" font-family="Arial, sans-serif" font-size="17" font-weight="500" fill="#5C6F82" ><tspan x="1093.75" dy="0">Jetons signés</tspan></text><line x1="890" y1="1005" x2="524.5" y2="1005" stroke="#68839E" stroke-width="2" stroke-dasharray="10 7" marker-end="url(#openArrow)"/><text x="706.25" y="995" text-anchor="middle" font-family="Arial, sans-serif" font-size="17" font-weight="500" fill="#5C6F82" ><tspan x="706.25" dy="0">200 + session et profil</tspan></text><line x1="502.5" y1="1075" x2="137" y2="1075" stroke="#68839E" stroke-width="2" stroke-dasharray="10 7" marker-end="url(#openArrow)"/><text x="318.75" y="1065" text-anchor="middle" font-family="Arial, sans-serif" font-size="17" font-weight="500" fill="#5C6F82" ><tspan x="318.75" dy="0">Rediriger vers l’espace autorisé</tspan></text><line x1="80" y1="1223" x2="150" y2="1223" stroke="#1F4E79" stroke-width="2.5" marker-end="url(#arrow)"/><text x="166" y="1229" text-anchor="start" font-family="Arial, sans-serif" font-size="15" font-weight="500" fill="#5C6F82" ><tspan x="166" dy="0">appel</tspan></text><line x1="260" y1="1223" x2="330" y2="1223" stroke="#68839E" stroke-width="2" stroke-dasharray="10 7" marker-end="url(#openArrow)"/><text x="346" y="1229" text-anchor="start" font-family="Arial, sans-serif" font-size="15" font-weight="500" fill="#5C6F82" ><tspan x="346" dy="0">retour</tspan></text><rect x="455" y="1210" width="16" height="30" fill="#EAF3FB" stroke="#2F75B5"/><text x="486" y="1229" text-anchor="start" font-family="Arial, sans-serif" font-size="15" font-weight="500" fill="#5C6F82" ><tspan x="486" dy="0">activation</tspan></text><text x="1718" y="1229" text-anchor="end" font-family="Arial, sans-serif" font-size="15" font-weight="500" fill="#5C6F82" font-style="italic"><tspan x="1718" dy="0">Fragments UML : alt, opt, loop</tspan></text></svg>