<?xml version="1.0" encoding="UTF-8"?><svg xmlns="http://www.w3.org/2000/svg" width="2400" height="1760" viewBox="0 0 2400 1760" role="img"><defs><marker id="tealArrow" markerWidth="11" markerHeight="11" refX="10" refY="5.5" orient="auto"><path d="M0,0L10,5.5L0,11z" fill="#14a9b5"/></marker><marker id="amberArrow" markerWidth="12" markerHeight="12" refX="11" refY="6" orient="auto"><path d="M1,1L11,6L1,11" fill="none" stroke="#c28b18" stroke-width="1.6"/></marker><style>.title{font:bold 17px Arial;fill:#263333}.actor{font:14px Arial;fill:#333}.stereotype,.condition{font:italic 10px Arial;fill:#666}.usecase{font:14px Arial;fill:#222;dominant-baseline:middle}.association{fill:none;stroke:#555;stroke-width:1.2}.include{fill:none;stroke:#14a9b5;stroke-width:1.35;stroke-dasharray:7 6}.extend{fill:none;stroke:#c28b18;stroke-width:1.35;stroke-dasharray:7 6}.include-label{font:11px Arial;fill:#39747a}.extend-label{font:11px Arial;fill:#8a6515}.legend{font:11px Arial;fill:#666}.caption{font:italic 16px Arial;fill:#444}</style></defs><rect width="2400" height="1760" fill="#fff"/><rect x="300" y="60" width="1840" height="1580" fill="#fff" stroke="#4f5b5b" stroke-width="1.6"/><line x1="300" y1="102" x2="2140" y2="102" stroke="#4f5b5b" stroke-width="1.2"/><text x="320" y="88" class="title">Système Matchia — Chatbot d&apos;une marketplace bancaire</text><path d="M180.0,286.0 L555.7,639.6" class="association"/><path d="M180.0,1086.0 L555.7,740.4" class="association"/><path d="M901.9,631.2 L1476.5,258.4" class="include" marker-end="url(#tealArrow)"/><rect x="1105.9814205899297" y="449.91516542054717" width="86" height="18" rx="3" fill="#fff" opacity=".95"/><text x="1148.9814205899297" y="462.91516542054717" text-anchor="middle" class="include-label">«include»</text><path d="M991.8,654.7 L1453.7,427.4" class="include" marker-end="url(#tealArrow)"/><rect x="1147.4230062611161" y="535.964983135068" width="86" height="18" rx="3" fill="#fff" opacity=".95"/><text x="1190.4230062611161" y="548.964983135068" text-anchor="middle" class="include-label">«include»</text><path d="M1026.0,678.2 L1377.2,591.4" class="include" marker-end="url(#tealArrow)"/><rect x="1134.0243722587575" y="619.918592531444" width="86" height="18" rx="3" fill="#fff" opacity=".95"/><text x="1177.0243722587575" y="632.918592531444" text-anchor="middle" class="include-label">«include»</text><path d="M1026.0,701.8 L1235.4,708.0" class="include" marker-end="url(#tealArrow)"/><rect x="1073.0437656869549" y="683.4386823456791" width="86" height="18" rx="3" fill="#fff" opacity=".95"/><text x="1116.0437656869549" y="696.4386823456791" text-anchor="middle" class="include-label">«include»</text><path d="M991.8,725.3 L1396.0,841.7" class="include" marker-end="url(#tealArrow)"/><rect x="1122.6408445113702" y="754.3444699647151" width="86" height="18" rx="3" fill="#fff" opacity=".95"/><text x="1165.6408445113702" y="767.3444699647151" text-anchor="middle" class="include-label">«include»</text><path d="M901.9,748.8 L1449.9,1007.8" class="include" marker-end="url(#tealArrow)"/><rect x="1094.5540194174898" y="839.1789959868873" width="86" height="18" rx="3" fill="#fff" opacity=".95"/><text x="1137.5540194174898" y="852.1789959868873" text-anchor="middle" class="include-label">«include»</text><path d="M613.5,1370.1 L736.0,759.9" class="extend" marker-end="url(#amberArrow)"/><rect x="626.8524149949533" y="1068.4021319418157" width="86" height="18" rx="3" fill="#fff" opacity=".95"/><text x="669.8524149949533" y="1081.4021319418157" text-anchor="middle" class="extend-label">«extend»</text><path d="M1164.3,1370.7 L792.1,759.2" class="extend" marker-end="url(#amberArrow)"/><rect x="950.1250519739253" y="1068.4197282428775" width="86" height="18" rx="3" fill="#fff" opacity=".95"/><text x="993.1250519739253" y="1081.4197282428775" text-anchor="middle" class="extend-label">«extend»</text><path d="M1577.0,1400.1 L1110.0,1325.0 L1080.0,1325.0 L1080.0,860.0 L980.0,860.0 L839.7,756.3" class="extend" marker-end="url(#amberArrow)"/><rect x="1037" y="1090.1" width="86" height="18" rx="3" fill="#fff" opacity=".95"/><text x="1080" y="1103.1" text-anchor="middle" class="extend-label">«extend»</text><g><circle cx="110" cy="243" r="14" fill="#fff" stroke="#555" stroke-width="1.4"/><path d="M110,257L110,295M85,271L135,271M110,295L88,322M110,295L132,322" fill="none" stroke="#555" stroke-width="1.4"/><text x="110" y="332" text-anchor="middle" class="actor"><tspan x="110" y="332">Internaute</tspan></text></g><g><circle cx="110" cy="1043" r="14" fill="#fff" stroke="#555" stroke-width="1.4"/><path d="M110,1057L110,1095M85,1071L135,1071M110,1095L88,1122M110,1095L132,1122" fill="none" stroke="#555" stroke-width="1.4"/><text x="110" y="1132" text-anchor="middle" class="actor"><tspan x="110" y="1132">Client</tspan></text></g><g><ellipse cx="750" cy="690" rx="280" ry="70" fill="#dbe9ff" stroke="#7da3d6" stroke-width="1.45"/><text x="750" y="690" text-anchor="middle" class="usecase"><tspan x="750" y="690">Utiliser le chatbot public</tspan></text></g><g><ellipse cx="1555" cy="207.5" rx="325" ry="52.5" fill="#d7f4ef" stroke="#5d7774" stroke-width="1.45"/><text x="1555" y="198" text-anchor="middle" class="usecase"><tspan x="1555" y="198">Identifier la marketplace</tspan><tspan x="1555" y="217">et le store</tspan></text></g><g><ellipse cx="1555" cy="377.5" rx="325" ry="52.5" fill="#d7f4ef" stroke="#5d7774" stroke-width="1.45"/><text x="1555" y="377.5" text-anchor="middle" class="usecase"><tspan x="1555" y="377.5">Vérifier l&apos;activation du module Chatbot</tspan></text></g><g><ellipse cx="1555" cy="547.5" rx="325" ry="52.5" fill="#d7f4ef" stroke="#5d7774" stroke-width="1.45"/><text x="1555" y="547.5" text-anchor="middle" class="usecase"><tspan x="1555" y="547.5">Normaliser le message</tspan></text></g><g><ellipse cx="1555" cy="717.5" rx="325" ry="52.5" fill="#d7f4ef" stroke="#5d7774" stroke-width="1.45"/><text x="1555" y="717.5" text-anchor="middle" class="usecase"><tspan x="1555" y="717.5">Détecter une intention métier</tspan></text></g><g><ellipse cx="1555" cy="887.5" rx="325" ry="52.5" fill="#d7f4ef" stroke="#5d7774" stroke-width="1.45"/><text x="1555" y="878" text-anchor="middle" class="usecase"><tspan x="1555" y="878">Rechercher uniquement</tspan><tspan x="1555" y="897">les données publiques</tspan></text></g><g><ellipse cx="1555" cy="1057.5" rx="325" ry="52.5" fill="#d7f4ef" stroke="#5d7774" stroke-width="1.45"/><text x="1555" y="1048" text-anchor="middle" class="usecase"><tspan x="1555" y="1048">Répondre ou orienter vers</tspan><tspan x="1555" y="1067">les produits, le comparateur ou le simulateur</tspan></text></g><g><ellipse cx="600" cy="1437.5" rx="280" ry="67.5" fill="#fff2cc" stroke="#c79a2b" stroke-width="1.45"/><text x="600" y="1428" text-anchor="middle" class="usecase"><tspan x="600" y="1428">Rendre le chatbot indisponible</tspan><tspan x="600" y="1447" class="condition">[Module Chatbot désactivé]</tspan></text></g><g><ellipse cx="1205" cy="1437.5" rx="280" ry="67.5" fill="#fff2cc" stroke="#c79a2b" stroke-width="1.45"/><text x="1205" y="1428" text-anchor="middle" class="usecase"><tspan x="1205" y="1428">Refuser la demande</tspan><tspan x="1205" y="1447" class="condition">[Donnée privée ou intention non autorisée]</tspan></text></g><g><ellipse cx="1810" cy="1437.5" rx="280" ry="67.5" fill="#fff2cc" stroke="#c79a2b" stroke-width="1.45"/><text x="1810" y="1428" text-anchor="middle" class="usecase"><tspan x="1810" y="1428">Demander une reformulation</tspan><tspan x="1810" y="1447" class="condition">[Intention non reconnue]</tspan></text></g><g class="legend"><text x="1510" y="1545">Association : trait plein</text><text x="1510" y="1570">«include» : sous-fonction obligatoire</text><text x="1510" y="1595">«extend» : comportement conditionnel</text></g><text x="1200" y="1710" text-anchor="middle" class="caption">UC-17 — Utiliser le chatbot public</text></svg>